<?xml version="1.0" encoding="utf-8"?>
<!-- Generator: Adobe Illustrator 16.0.0, SVG Export Plug-In . SVG Version: 6.00 Build 0)  -->
<!DOCTYPE svg PUBLIC "-//W3C//DTD SVG 1.1//EN" "http://www.w3.org/Graphics/SVG/1.1/DTD/svg11.dtd">
<svg version="1.1" id="Capa_1" xmlns="http://www.w3.org/2000/svg" xmlns:xlink="http://www.w3.org/1999/xlink" x="0px" y="0px"
	 width="573px" height="294.791px" viewBox="0 0 573 294.791" enable-background="new 0 0 573 294.791" xml:space="preserve">
<g>
	<defs>
		<rect id="SVGID_1_" width="573" height="294.791"/>
	</defs>
	<clipPath id="SVGID_2_">
		<use xlink:href="#SVGID_1_"  overflow="visible"/>
	</clipPath>
	<path clip-path="url(#SVGID_2_)" fill="#DDE16A" d="M267.883,27.508c0,0,3.384-3.346,6.159-4.524
		c2.776-1.179,6.806-2.966,10.037-3.422c3.232-0.456,8.593-1.027,11.14-0.76c2.547,0.266,9.999,2.015,12.965,3.535
		c2.965,1.521,7.68,4.373,9.353,6.502c1.674,2.129,5.133,7.946,5.627,10.189c0.494,2.243,1.444,9.049,1.179,11.482
		c-0.267,2.433-1.522,8.567-3.079,10.645c-1.559,2.079-1.939,4.563-4.563,7.148c-2.623,2.585-12.128,13.535-12.128,13.535
		l-0.204,10.608c0,0-1.354,2.053-4.243,2.661c-2.891,0.608-8.403,1.635-11.673,0.608c-3.27-1.026-9.163-3.573-9.163-3.573
		s0.55-3.46-0.105-7.376c-0.655-3.916-2.595-6.312-2.595-6.312s-1.947-3.526-3.649-4.638c-1.703-1.112-4.494-4.814-6.008-6.311
		c-1.513-1.498-3.801-5.057-4.828-7.49s-2.167-8.517-2.243-9.733c-0.076-1.217-0.304-4.715,0-7.3
		c0.304-2.585,1.635-6.24,2.471-8.402C263.169,32.418,267.883,27.508,267.883,27.508"/>
	<path clip-path="url(#SVGID_2_)" d="M297.587,72.004l-0.031-1.705c-5.323-0.191-5.767-0.704-5.845-5.009L291.22,38.53l4.132-0.075
		c4.133-0.076,4.89,0.286,5.781,1.541c0.651,0.856,1.108,2.148,1.676,4.739l1.788-0.292c-0.344-3.001-0.676-6.897-0.725-9.469
		l-1.271,0.023c-0.79,1.027-1.103,1.35-2.547,1.376l-21.472,0.395c-1.502,0.027-2.199-0.075-3.03-1.274l-1.185,0.021
		c-0.016,0.813-0.047,1.661-0.085,2.526l15.625-0.287l0.632,34.38L297.587,72.004z"/>
	<path clip-path="url(#SVGID_2_)" d="M279.473,90.508l-0.331,2.242c0,0,3.032,3.925,14.5,3.262
		C293.642,96.012,284.365,95.706,279.473,90.508"/>
	<path clip-path="url(#SVGID_2_)" d="M279.601,98.102c-0.153,0.815-0.207,4.776,6.192,6.982c5.988,2.064,11.097,0.567,13.072-0.255
		c1.662-0.691,3.364-1.962,3.797-2.421c0.434-0.458,1.783-2.064,1.656-4.306c0,0-0.637,2.574-3.644,3.746
		c-3.007,1.172-6.633,1.325-8.731,1.299c-2.098-0.025-5.849,0.094-8.953-1.35C279.886,100.352,279.601,98.102,279.601,98.102"/>
	<path clip-path="url(#SVGID_2_)" d="M301.375,94.736c0,0,2.585-1.445,3.27-1.977c0,0-0.076-6.083,0.912-9.657
		c0.989-3.574,4.334-7.224,5.931-8.821c1.598-1.596,5.323-5.322,7.528-8.212c2.205-2.889,3.271-6.615,4.106-8.516
		c0.837-1.901,1.597-6.387,1.597-9.277c0-2.889,0-5.931-1.217-9.733c-1.216-3.802-2.129-5.399-4.639-8.821
		c-2.509-3.421-6.69-6.159-9.581-7.603c-2.889-1.445-7.147-2.738-11.178-3.346c-4.03-0.609-9.429-0.532-12.622,0
		c-3.194,0.532-6.083,1.14-10.95,3.346c-4.866,2.205-9.581,7.527-9.733,7.756c-0.152,0.228,1.065-1.597-0.152,0.228
		c-1.217,1.825-3.422,4.41-4.638,9.352c-1.217,4.943-1.141,9.733-0.609,13.155c0.533,3.422,2.966,8.897,4.259,10.874
		c1.292,1.977,3.649,5.018,6.083,7.604c2.433,2.585,4.182,4.106,5.703,6.387c1.52,2.281,3.819,5.703,3.696,8.745
		c0,0,1.25-4.779-5.445-12.091c-5.895-6.436-6.708-6.679-9.961-11.71c-3.802-5.879-3.878-16.196-3.498-19.238
		c0.38-3.041,2.661-9.885,5.627-13.078c2.965-3.194,7.832-7.148,12.394-8.669s10.57-2.509,14.448-2.357
		c3.878,0.152,10.341,1.141,14.295,3.042c3.954,1.9,8.973,5.094,11.481,8.744c2.509,3.65,4.41,7.528,5.019,12.394
		c0.608,4.867,0.076,10.19-0.988,12.927c-1.065,2.738-2.509,7.925-6.311,11.795c-3.803,3.869-4.487,5.086-6.083,6.607
		c-1.598,1.52-5.476,5.931-7.225,6.387c0,0,1.141,2.813,1.216,4.334c0.076,1.521,0.229,5.779,0.152,6.311
		C304.188,92.151,303.124,93.519,301.375,94.736"/>
	<path clip-path="url(#SVGID_2_)" d="M162.358,246.846c1.419-1.217,2.703-1.825,3.852-1.825c1.79,0,3.21,1.739,4.258,5.215
		c0.675,2.669,1.351,5.334,2.027,7.999c1.385-2.124,2.769-4.269,4.155-6.429c2.196-3.036,4.089-4.556,5.677-4.556
		c1.081,0,2.044,0.752,2.889,2.254c0.844,1.503,1.461,4.086,1.85,7.749c0.388,3.663,1.242,6.306,2.559,7.927
		c-0.271,0.137-0.667,0.35-1.191,0.639s-1.19,0.506-2.002,0.641c-0.642-3.75-1.098-6.521-1.368-8.312
		c-0.507-3.177-1.317-5.896-2.433-8.162c-2.298,0.813-4.14,2.535-5.524,5.169c-1.014,2.463-2.028,4.911-3.041,7.343
		c-1.251,2.87-2.822,4.811-4.714,5.825c-0.034-0.204-0.05-0.44-0.05-0.709v-0.608c0-0.946,0.083-2.111,0.253-3.496
		c0.405-3.342,0.608-5.503,0.608-6.483c0-1.45-0.152-2.741-0.456-3.874c-0.304-1.131-0.862-2.185-1.672-3.166
		c-0.812-0.978-1.657-1.468-2.535-1.468c-0.676,0-1.352,0.271-2.027,0.812c-0.541,0.438-1.115,1.081-1.723,1.926
		c-0.845,1.622-1.419,2.703-1.723,3.243c-0.507,0.913-1.42,1.521-2.737,1.825c0.337-1.993,0.862-3.699,1.571-5.12
		C159.705,249.548,160.871,248.095,162.358,246.846"/>
	<path clip-path="url(#SVGID_2_)" d="M195.959,263.317c0.812-0.372,1.351-0.728,1.622-1.064c0.27-0.338,0.405-0.744,0.405-1.217
		c0-0.236-0.025-0.625-0.075-1.165c-0.051-0.541-0.076-0.879-0.076-1.015c0-3.345,0.472-6.167,1.418-8.464
		c1.319-3.21,3.379-4.814,6.184-4.814c1.318,0,2.364,0.456,3.142,1.369c0.777,0.911,1.166,1.992,1.166,3.242
		c0,0.846-0.169,1.621-0.507,2.331c-0.608,1.387-1.807,3.109-3.598,5.172c-2.129,2.465-3.465,4.121-4.004,4.965
		c0.777,0.677,1.604,1.344,2.483,2.002c0.878,0.66,1.74,1.057,2.585,1.191c0.203,0.034,0.405,0.052,0.608,0.052h0.609
		c1.25,0,2.618-0.271,4.105-0.812c4.426-1.621,6.673-2.433,6.74-2.433c-0.54,1.858-1.621,3.211-3.243,4.056
		c-1.42,0.742-3.211,1.115-5.372,1.115c-1.622,0-3.193-0.177-4.714-0.532c-1.521-0.354-2.948-0.829-4.283-1.42
		c-1.335-0.59-2.171-0.887-2.508-0.887c-0.237,0-0.457,0.033-0.66,0.101c-0.743,0.305-1.418,0.559-2.027,0.761
		c-0.372,0.102-0.785,0.212-1.241,0.33c-0.457,0.118-0.854,0.178-1.192,0.178c-0.676,0-1.352-0.592-2.027-1.773
		c0.743-0.17,1.512-0.347,2.307-0.534C194.6,263.866,195.317,263.622,195.959,263.317 M205.438,248.112
		c-0.98-0.168-1.926,0.321-2.838,1.47c-0.676,0.845-1.2,1.825-1.571,2.938c-0.508,1.421-0.76,2.501-0.76,3.245
		s0.252,1.773,0.76,3.091c1.046-0.675,2.313-1.856,3.801-3.549c1.891-2.16,2.838-3.884,2.838-5.169
		C207.667,249.022,206.923,248.348,205.438,248.112"/>
	<path clip-path="url(#SVGID_2_)" d="M237.722,263.925c0.473,0.576,1.013,0.862,1.622,0.862c0.676,0,1.418-0.439,2.23-1.318
		c0.641-0.709,1.25-1.604,1.825-2.686c1.046-2.095,1.571-4.207,1.571-6.335c0-1.05-0.085-2.012-0.254-2.891
		c-0.17-0.878-0.727-2.322-1.672-4.333c-0.947-2.009-1.42-3.386-1.42-4.13c0-0.979,0.609-1.47,1.825-1.47
		c0.338,0,0.887,0.067,1.648,0.202c0.759,0.136,1.663,0.271,2.711,0.406c1.385,0.303,2.077,1.133,2.077,2.482
		c0,0.406-0.05,0.896-0.151,1.47c-0.879-0.135-1.715-0.271-2.509-0.405c-0.795-0.135-1.647-0.202-2.559-0.202
		c0.641,2.195,1.097,3.902,1.368,5.12c0.438,1.991,0.659,3.75,0.659,5.27c0,1.081-0.102,2.128-0.305,3.143
		c-0.202,1.013-0.556,1.994-1.064,2.94c-0.608,1.183-1.52,2.347-2.737,3.497c-1.385,1.317-2.584,2.042-3.598,2.179
		c-2.096,0.235-3.667-1.453-4.714-5.069c-0.034-0.102-0.371-1.569-1.013-4.409c-0.845,1.217-1.672,2.416-2.484,3.599
		c-2.298,3.075-4.206,4.612-5.727,4.612c-1.264,0-2.145-0.557-2.644-1.672c-0.366-0.845-0.549-2.079-0.549-3.699v-1.421v-1.419
		c0-2.635,0.119-4.822,0.355-6.563c0.236-1.74,0.76-3.572,1.571-5.499c0.54,0.608,0.937,1.327,1.191,2.155
		c0.254,0.827,0.38,1.731,0.38,2.711c0,0.98-0.102,2.096-0.304,3.345c-0.507,3.177-0.76,5.103-0.76,5.777
		c0,1.453,0.253,2.704,0.76,3.751c1.622-0.675,3.345-2.45,5.17-5.322c1.723-2.735,3.379-4.342,4.967-4.814
		c0.101,0.407,0.295,1.901,0.582,4.484C236.058,260.859,236.709,262.743,237.722,263.925"/>
	<path clip-path="url(#SVGID_2_)" d="M286.528,244.312c1.453,0.845,2.416,2.551,2.89,5.118c0.305,2.095,0.607,4.191,0.913,6.285
		c1.079-2.027,1.806-3.295,2.178-3.801c0.945-1.285,1.927-1.928,2.939-1.928c0.439,0,0.846,0.094,1.218,0.28
		c0.371,0.185,0.775,0.505,1.216,0.963c0.438,0.456,0.929,1.411,1.47,2.862c0.202,0.507,0.574,1.674,1.116,3.497
		c1.249-1.655,2.499-3.311,3.748-4.965c1.825-2.163,3.414-3.244,4.766-3.244c0.641,0,1.248,0.244,1.824,0.733
		c0.574,0.49,1.131,1.293,1.673,2.407c0.406,0.913,0.769,2.315,1.088,4.208c0.323,1.893,0.584,3.202,0.786,3.928
		c0.204,0.728,0.576,1.579,1.115,2.56c0.438,0.777,0.71,1.655,0.812,2.635c-0.712,0.202-1.268,0.355-1.674,0.456
		c-0.405,0.101-0.895,0.152-1.469,0.152c0-1.857-0.162-3.675-0.482-5.447c-0.321-1.776-0.803-3.539-1.443-5.297
		c-0.373-1.047-0.778-1.816-1.216-2.307c-0.441-0.489-0.913-0.735-1.422-0.735c-1.112,0-2.397,1.184-3.851,3.549
		c-0.508,0.81-1.082,1.909-1.722,3.295c-0.644,1.384-1.269,2.77-1.876,4.155c-0.778,1.386-1.843,2.314-3.192,2.787
		c0-0.776,0.042-1.901,0.125-3.371c0.084-1.469,0.126-2.357,0.126-2.66c0-1.857-0.202-3.311-0.608-4.359
		c-0.539-1.35-1.484-2.312-2.837-2.889c-0.304,0.574-1.217,3.292-2.736,8.154c-1.115,3.61-2.519,5.941-4.206,6.987
		c0-1.147,0.116-3.021,0.354-5.623c0.234-2.599,0.354-4.591,0.354-5.976c0-1.384-0.043-2.458-0.127-3.216
		c-0.084-0.761-0.288-1.705-0.609-2.838c-0.32-1.13-0.778-1.974-1.367-2.532c-0.593-0.557-1.26-0.835-2.001-0.835
		c-0.643,0-1.327,0.185-2.054,0.557c-0.726,0.371-1.453,0.879-2.179,1.521c-0.727,0.641-1.798,2.163-3.219,4.561
		c-1.113,1.893-2.364,3.108-3.75,3.648c0.44-2.567,1.674-5.371,3.701-8.413c2.433-3.683,4.881-5.524,7.348-5.524
		C285.024,243.651,285.785,243.872,286.528,244.312"/>
	<path clip-path="url(#SVGID_2_)" d="M322.616,263.317c0.812-0.372,1.351-0.728,1.621-1.064c0.271-0.338,0.406-0.744,0.406-1.217
		c0-0.236-0.027-0.625-0.076-1.165c-0.052-0.541-0.076-0.879-0.076-1.015c0-3.345,0.473-6.167,1.418-8.464
		c1.318-3.21,3.379-4.814,6.185-4.814c1.317,0,2.363,0.456,3.142,1.369c0.776,0.911,1.165,1.992,1.165,3.242
		c0,0.846-0.169,1.621-0.507,2.331c-0.606,1.387-1.807,3.109-3.598,5.172c-2.128,2.465-3.464,4.121-4.005,4.965
		c0.778,0.677,1.605,1.344,2.484,2.002c0.878,0.66,1.739,1.057,2.584,1.191c0.204,0.034,0.406,0.052,0.608,0.052h0.608
		c1.25,0,2.618-0.271,4.105-0.812c4.428-1.621,6.674-2.433,6.742-2.433c-0.541,1.858-1.622,3.211-3.245,4.056
		c-1.419,0.742-3.209,1.115-5.371,1.115c-1.623,0-3.194-0.177-4.714-0.532c-1.521-0.354-2.948-0.829-4.283-1.42
		c-1.334-0.59-2.172-0.887-2.509-0.887c-0.236,0-0.456,0.033-0.658,0.101c-0.744,0.305-1.42,0.559-2.027,0.761
		c-0.374,0.102-0.785,0.212-1.243,0.33c-0.455,0.118-0.852,0.178-1.189,0.178c-0.677,0-1.353-0.592-2.029-1.773
		c0.744-0.17,1.512-0.347,2.309-0.534C321.256,263.866,321.975,263.622,322.616,263.317 M332.094,248.112
		c-0.98-0.168-1.926,0.321-2.839,1.47c-0.676,0.845-1.2,1.825-1.57,2.938c-0.507,1.421-0.76,2.501-0.76,3.245
		s0.253,1.773,0.76,3.091c1.047-0.675,2.312-1.856,3.801-3.549c1.892-2.16,2.839-3.884,2.839-5.169
		C334.324,249.022,333.58,248.348,332.094,248.112"/>
	<path clip-path="url(#SVGID_2_)" d="M360.627,232.907c0.202-0.845,0.421-1.445,0.659-1.8c0.235-0.355,0.506-0.532,0.811-0.532
		c0.539,0,1.115,0.625,1.724,1.876s1.038,2.628,1.291,4.13c0.254,1.505,0.473,3.025,0.66,4.562c0.185,1.538,0.278,3.033,0.278,4.486
		c0,1.353-0.068,2.618-0.203,3.8c-0.135,1.185-0.405,2.416-0.812,3.7c-0.404,1.285-0.692,2.248-0.86,2.891
		c-0.374,1.282-0.559,2.298-0.559,3.04c0,0.607,0.052,1.132,0.153,1.57c0.101,0.44,0.345,0.963,0.733,1.571
		c0.39,0.608,0.828,1.056,1.318,1.344c0.49,0.286,1.056,0.432,1.699,0.432c0.405,0,0.979-0.068,1.723-0.204
		c1.656-0.304,2.788-0.455,3.395-0.455c0,0.27-0.008,0.541-0.024,0.81c-0.018,0.271-0.025,0.541-0.025,0.812
		c0,0.403,0.018,0.71,0.05,0.912c-1.317,0.305-2.416,0.454-3.294,0.454c-1.656,0-3.362-0.726-5.119-2.179
		c-1.554-1.283-2.754-2.195-3.598-2.735c-0.979,1.418-2.23,2.669-3.751,3.75c-1.756,1.251-3.312,1.875-4.662,1.875
		c-0.948,0-1.732-0.339-2.356-1.014c-0.625-0.675-1.057-1.79-1.293-3.346c-0.102-0.776-0.188-1.621-0.253-2.534
		c-0.069-0.912-0.102-1.858-0.102-2.838c0-3.581,0.421-6.42,1.267-8.514c1.08-2.703,2.786-4.056,5.118-4.056
		c1.353,0,2.941,0.49,4.766,1.471C359.765,241.76,360.188,237.335,360.627,232.907 M349.83,255.054
		c-0.101,0.813-0.15,1.692-0.15,2.638c0,1.926,0.234,3.479,0.709,4.663c0.608,1.486,1.555,2.23,2.838,2.23
		c0.677,0,1.452-0.222,2.331-0.66c1.59-0.775,2.771-1.856,3.55-3.244c0.775-1.386,1.165-2.923,1.165-4.611
		c0-1.419-0.246-2.82-0.734-4.207c-0.492-1.384-1.192-2.643-2.105-3.775c-0.911-1.133-1.808-1.699-2.685-1.699
		c-1.251,0-2.384,1.083-3.396,3.243C350.542,251.355,350.034,253.163,349.83,255.054 M362.501,253.18
		c0.778-1.384,1.411-3.023,1.901-4.916c0.49-1.891,0.735-3.816,0.735-5.776c0-1.926-0.245-3.643-0.735-5.146
		c-0.49-1.504-1.325-2.779-2.507-3.827c-0.407,0.98-0.713,2.181-0.914,3.599c-0.202,1.419-0.304,2.856-0.304,4.308
		C360.678,245.881,361.286,249.801,362.501,253.18"/>
	<path clip-path="url(#SVGID_2_)" d="M385.917,260.783c0.507,1.081,1.156,1.807,1.951,2.179c0.793,0.372,1.747,0.557,2.863,0.557
		c0.473,0,1.046-0.015,1.724-0.05c0.675-0.034,1.436-0.084,2.28-0.151h0.709c-0.135,1.149-0.523,2.002-1.165,2.559
		c-0.643,0.558-1.452,0.837-2.433,0.837c-1.724,0-3.615-0.71-5.677-2.128c-2.062-1.421-3.413-2.906-4.056-4.462
		c-0.743,0.845-1.756,2.33-3.04,4.456c-2.061,3.441-4.004,5.534-5.828,6.276c0-1.552,1.029-3.778,3.091-6.679
		c1.317-1.856,2.196-3.207,2.637-4.054c0.912-1.756,2.161-3.901,3.749-6.437c2.13-3.378,3.413-5.457,3.854-6.234
		c0.709,0.948,1.063,1.928,1.063,2.94c0,0.677-0.508,2.297-1.521,4.866c-0.508,1.283-0.76,2.35-0.76,3.192
		c0,0.305,0.025,0.642,0.074,1.014C385.485,259.837,385.646,260.275,385.917,260.783 M388.451,235.428
		c-0.338-0.775-0.558-1.249-0.66-1.419c-0.337-0.741-0.505-1.35-0.505-1.824c0-0.338,0.091-0.71,0.277-1.115
		c0.186-0.404,0.481-0.86,0.888-1.367c0.979,0.979,1.47,1.772,1.47,2.381c0,0.306-0.068,0.609-0.204,0.914
		C389.212,233.908,388.789,234.719,388.451,235.428"/>
	<path clip-path="url(#SVGID_2_)" d="M397.975,266.459c-0.233-0.405-0.401-0.87-0.503-1.394c-0.101-0.523-0.152-1.039-0.152-1.546
		c0-0.574,0.068-1.301,0.204-2.181c0.303-1.992,0.456-3.242,0.456-3.751c0-2.533,0.405-5.067,1.216-7.602
		c0.71-2.229,1.773-4.544,3.191-6.943c0.846-1.418,1.717-2.439,2.611-3.065c0.896-0.625,1.832-0.938,2.814-0.938
		c2.06,0,3.919,1.209,5.573,3.625c1.655,2.416,2.484,4.976,2.484,7.68c0,0.538-0.051,1.081-0.152,1.619
		c-0.101,0.542-0.152,1.032-0.152,1.471c0,1.251,0.372,2.5,1.115,3.751c0.236,0.403,0.762,1.182,1.571,2.332
		c0.54,0.775,1.199,1.367,1.978,1.772c0.608,0.305,1.468,0.567,2.584,0.786c1.114,0.219,1.876,0.423,2.279,0.608
		c0.407,0.185,0.862,0.601,1.37,1.242c-1.089,0.235-2.11,0.354-3.064,0.354c-2.042,0-3.872-0.802-5.489-2.406
		c-1.617-1.605-3.228-3.235-4.826-4.891c-1.31,2.33-2.938,4.611-4.886,6.842c-2.785,3.209-5.154,4.814-7.102,4.814
		C399.821,268.639,398.78,267.912,397.975,266.459 M400.513,249.986c-0.507,1.657-0.91,3.32-1.217,4.994
		c-0.303,1.672-0.455,3.268-0.455,4.788c0,0.475,0.007,0.972,0.025,1.497c0.017,0.521,0.143,1.207,0.381,2.051
		c0.471,1.86,1.317,2.788,2.534,2.788c1.35,0,3.039-1.115,5.067-3.344c1.655-1.791,2.922-3.516,3.802-5.173
		c0.607-1.046,1.165-2.499,1.672-4.356c0.507-1.859,0.761-3.601,0.761-5.22c0-1.825-0.288-3.262-0.862-4.309
		c-0.71-1.285-1.773-1.926-3.193-1.926c-1.926,0-3.769,0.979-5.524,2.939C402.016,246.338,401.021,248.095,400.513,249.986"/>
	<polygon clip-path="url(#SVGID_2_)" points="66.105,211.528 39.401,211.528 39.401,202.328 46.919,202.328 46.919,140.618 
		35.475,140.618 35.475,151.39 26.274,151.39 26.274,131.418 78.896,131.418 78.896,151.39 69.808,151.39 69.808,140.618 
		58.363,140.618 58.363,202.328 66.105,202.328 	"/>
	<path clip-path="url(#SVGID_2_)" d="M84.422,211.528v-6.843h6.844v-70.462h-6.844v-6.846h17.727v31.867
		c1.421-2.094,3.292-3.741,5.611-4.938c2.917-1.496,6.469-2.243,10.659-2.243c6.732,0,12.098,1.889,16.1,5.665
		c4.002,3.778,6.003,8.734,6.003,14.866v32.091h6.844v6.843h-24.572v-6.843h6.845v-31.529c0-3.44-1.104-6.229-3.31-8.36
		c-2.208-2.132-5.256-3.196-9.144-3.196c-3.89,0-7.257,1.16-10.098,3.478c-2.171,1.796-3.815,4.002-4.938,6.62v32.988h6.845v6.843
		H84.422z"/>
	<path clip-path="url(#SVGID_2_)" d="M152.109,160.59v-6.845h17.727v50.939h6.845v6.844h-24.572v-6.844h6.844V160.59H152.109z
		 M170.847,138.149c0,1.871-0.656,3.461-1.963,4.769c-1.31,1.31-2.9,1.964-4.769,1.964c-1.871,0-3.461-0.654-4.768-1.964
		c-1.31-1.308-1.964-2.898-1.964-4.769c0-1.869,0.654-3.459,1.964-4.769c1.307-1.306,2.897-1.962,4.768-1.962
		c1.869,0,3.459,0.656,4.769,1.962C170.19,134.69,170.847,136.28,170.847,138.149"/>
	<path clip-path="url(#SVGID_2_)" d="M182.543,211.528v-6.843h6.844V160.59h-6.844v-6.846h17.727v5.5
		c2.469-2.843,5.031-4.75,7.687-5.723c2.654-0.973,5.702-1.458,9.144-1.458c6.581,0,11.817,1.87,15.708,5.608
		c3.888,3.742,5.834,8.715,5.834,14.923v32.091h6.844v6.843h-24.572v-6.843h6.845v-31.529c0-3.591-1.066-6.413-3.198-8.472
		c-2.132-2.057-5.031-3.085-8.696-3.085c-4.038,0-7.592,1.272-10.659,3.814c-2.243,1.871-3.89,3.966-4.937,6.283v32.988h6.845v6.843
		H182.543z"/>
	<polygon clip-path="url(#SVGID_2_)" points="278.36,160.478 278.36,153.633 304.279,153.633 304.279,160.478 297.331,160.478 
		277.946,179.853 302.744,204.648 307.532,204.685 307.532,211.528 295.978,211.528 267.253,182.805 267.253,204.685 
		274.771,204.685 274.771,211.528 250.086,211.528 250.086,204.685 257.043,204.685 257.043,134.223 250.086,134.223 
		250.086,127.377 267.253,127.377 267.253,178.961 285.753,160.463 	"/>
	<polygon clip-path="url(#SVGID_2_)" points="355.328,211.528 328.625,211.528 328.625,202.328 336.143,202.328 336.143,140.618 
		324.697,140.618 324.697,151.39 315.497,151.39 315.497,131.418 368.119,131.418 368.119,151.39 359.031,151.39 359.031,140.618 
		347.586,140.618 347.586,202.328 355.328,202.328 	"/>
	<path clip-path="url(#SVGID_2_)" d="M391.701,160.926c-2.628,0-5.255,0.469-7.883,1.403c-2.627,0.936-4.767,2.225-6.418,3.871
		l-5.387-6.847c2.393-2.315,5.445-4.112,9.156-5.384s7.667-1.907,11.868-1.907c7.2,0,13.126,1.723,17.777,5.16
		c5.4,3.966,8.098,9.576,8.098,16.831v30.631h8.191v6.844h-19.187v-4.264c-1.946,1.646-3.74,2.844-5.386,3.59
		c-2.767,1.196-6.434,1.794-10.995,1.794c-7.479,0-13.39-2.019-17.727-6.058c-4.039-3.739-6.061-8.414-6.061-14.023
		c0-5.685,2.058-10.396,6.172-14.138c4.412-4.04,10.283-6.06,17.615-6.06c4.188,0,7.778,0.711,10.771,2.132
		c2.168,1.049,4.039,2.431,5.609,4.151v-5.272c0-3.964-1.596-7.031-4.785-9.2C399.942,162.011,396.131,160.926,391.701,160.926
		 M377.4,192.567c0,3.217,1.215,5.833,3.646,7.854c2.431,2.019,6.002,3.028,10.716,3.028c4.859,0,8.656-1.047,11.387-3.141
		c2.731-2.094,4.096-4.674,4.096-7.741c0-3.066-1.273-5.61-3.814-7.632c-2.844-2.241-6.731-3.364-11.668-3.364
		c-4.64,0-8.192,1.028-10.659,3.085C378.635,186.715,377.4,189.35,377.4,192.567"/>
	<path clip-path="url(#SVGID_2_)" d="M432.489,211.528v-6.843h6.845V160.59h-6.845v-6.846h17.728v5.5
		c2.468-2.843,5.028-4.75,7.685-5.723c2.654-0.973,5.703-1.458,9.146-1.458c6.58,0,11.817,1.87,15.708,5.608
		c3.888,3.742,5.835,8.715,5.835,14.923v32.091h6.843v6.843h-24.571v-6.843h6.844v-31.529c0-3.591-1.065-6.413-3.197-8.472
		c-2.132-2.057-5.032-3.085-8.695-3.085c-4.04,0-7.593,1.272-10.659,3.814c-2.244,1.871-3.89,3.966-4.937,6.283v32.988h6.844v6.843
		H432.489z"/>
	<polygon clip-path="url(#SVGID_2_)" points="528.306,160.478 528.306,153.633 554.225,153.633 554.225,160.478 547.277,160.478 
		527.892,179.853 552.69,204.648 557.479,204.685 557.479,211.528 545.923,211.528 517.199,182.805 517.199,204.685 
		524.715,204.685 524.715,211.528 500.032,211.528 500.032,204.685 506.988,204.685 506.988,134.223 500.032,134.223 
		500.032,127.377 517.199,127.377 517.199,178.961 535.699,160.463 	"/>
</g>
</svg>
